PathFileType	4	(X/Y/Z)	OpenSim_Sub01_EMGStiffKnee_Gyro.trc
DataRate	CameraRate	NumFrames	NumMarkers	Units	OrigDataRate	OrigDataStartFrame	OrigNumFrames
100	100	41	8	m	100	3480	5567
Frame#	Time	torso_imu_offset_imu	pelvis_imu_offset_imu	tibia_r_imu_offset_imu	femur_r_imu_offset_imu	tibia_l_imu_offset_imu	femur_l_imu_offset_imu	toes_r_imu_offset_imu	toes_l_imu_offset_imu
				X1	Y1	Z1	X2	Y2	Z2	X3	Y3	Z3	X4	Y4	Z4	X5	Y5	Z5	X6	Y6	Z6	X7	Y7	Z7	X8		Y8	Z8	

3480	34.79000000	-0.02962158	0.20190279	-0.29807045	-0.27553790	-0.15357934	-0.14661196	-0.54173354	0.01818017	-2.41586094	0.12229006	0.60190267	0.55891115	-1.33245341	0.16226967	1.20007292	-0.40888305	-0.16625622	0.66449529	-1.09975985	-4.26687246	0.03384535	-0.26291076	-1.54149873	0.15616632
3481	34.80000000	0.01468815	0.19244594	-0.28577660	-0.25551037	-0.45060419	-0.18872814	-0.68128283	-0.04280655	-2.46533410	0.08033888	0.71837580	0.86741634	-1.31799777	0.15893879	1.19965973	-0.39396758	-0.12268231	0.44227596	-1.07411773	-4.86889494	-0.26218254	-0.17614211	-1.54515303	0.07068267
3482	34.81000000	0.02505083	0.17062375	-0.26479973	-0.25869389	-0.69908321	-0.17977129	-0.77320796	-0.10583995	-2.46081387	0.02274489	0.78088333	1.18178565	-1.10595042	0.02881424	1.09149941	-0.36958634	-0.14556942	0.17715054	-0.86922321	-5.32767336	-0.65603352	-0.19343034	-1.56997244	0.05371825
3483	34.82000000	-0.00673526	0.13037993	-0.22897582	-0.26944207	-0.78764319	-0.10429883	-0.75473613	-0.17118075	-2.40624944	0.02407908	0.76407542	1.44024780	-0.87365079	-0.18009256	1.03019937	-0.33784824	-0.16864044	0.15429805	-0.44822080	-5.51525745	-1.05589427	-0.29973016	-1.42686132	0.08543659
3484	34.83000000	-0.07454089	0.07788024	-0.18396385	-0.28390511	-0.70840835	0.01071673	-0.58795282	-0.23493382	-2.32504513	0.07075200	0.67477353	1.61159631	-0.68306526	-0.38932621	1.02782763	-0.26130522	-0.18522126	0.40083769	0.07149941	-5.45803812	-1.40222846	-0.43219580	-1.12044141	0.14563341
3485	34.84000000	-0.16120634	0.02869528	-0.14452164	-0.30731151	-0.53316580	0.10566660	-0.25411475	-0.29000198	-2.25557336	0.08133033	0.54456192	1.68816284	-0.50735526	-0.49703252	0.98676161	-0.07209505	-0.23450361	0.74525201	0.45387955	-5.30113537	-1.66033123	-0.49121688	-0.80442426	0.21382146
3486	34.85000000	-0.25128379	-0.00624955	-0.12234828	-0.34150869	-0.32299689	0.13994290	0.21818167	-0.32534907	-2.22531434	0.00211270	0.40198953	1.67521133	-0.33003064	-0.44995784	0.85494703	0.24948452	-0.33471124	1.03516502	0.55379030	-5.08253824	-1.77564353	-0.41902863	-0.59099828	0.26973335
3487	34.86000000	-0.33525541	-0.03055073	-0.11935866	-0.37760356	-0.10108255	0.13189192	0.66113927	-0.31847929	-2.22823899	-0.13301340	0.26469335	1.61463367	-0.17213857	-0.34104964	0.72411664	0.57770727	-0.43825754	1.19026088	0.50535982	-4.51282948	-1.63271320	-0.28501747	-0.45757348	0.29377664
3488	34.87000000	-0.40503460	-0.05028132	-0.13538958	-0.40549418	0.11552994	0.10983869	0.89034423	-0.24756877	-2.24653625	-0.27534581	0.14829269	1.55463015	-0.06166440	-0.28349370	0.70419964	0.76837096	-0.48867820	1.15040496	0.48526408	-3.28005993	-1.12063851	-0.17794392	-0.35861446	0.26867564
3489	34.88000000	-0.45754624	-0.06839804	-0.16625040	-0.42670355	0.29672192	0.08832734	0.85783607	-0.13254992	-2.17880305	-0.39681868	0.06840303	1.53646430	-0.02656519	-0.28884698	0.77962299	0.80313326	-0.47873179	0.95808378	0.53427667	-1.64088038	-0.36506239	-0.12470909	-0.27810853	0.20995258
3490	34.89000000	-0.49357431	-0.08545870	-0.20465000	-0.45169882	0.40232589	0.07129437	0.62072409	-0.02548427	-1.85935286	-0.48525519	0.04062854	1.59604124	-0.09475277	-0.29045033	0.83823397	0.76052211	-0.43906516	0.73476342	0.58856781	-0.28943969	0.32634695	-0.10459715	-0.22276563	0.15836687
3491	34.90000000	-0.51575103	-0.10199422	-0.24300554	-0.48483820	0.40974712	0.06357783	0.27548201	0.04060900	-1.20816312	-0.53301365	0.06947252	1.74462214	-0.26304156	-0.24353112	0.80811462	0.69900377	-0.39650721	0.57941477	0.60089965	0.34922465	0.73044247	-0.09908376	-0.19455877	0.14105617
3492	34.91000000	-0.53190550	-0.11863906	-0.27310421	-0.51164408	0.34937524	0.07350556	0.02752103	0.09174932	-0.40466858	-0.54471372	0.12645383	1.92065009	-0.43584583	-0.17432924	0.74428356	0.61002855	-0.36364623	0.51812928	0.58133127	0.68315891	0.88913842	-0.09979602	-0.17964874	0.14275312
3493	34.92000000	-0.55030056	-0.13601817	-0.28703230	-0.51510192	0.26010125	0.10936547	0.08197360	0.16136586	0.33180221	-0.52609985	0.17823064	2.05129362	-0.50757732	-0.12038365	0.72091337	0.47303813	-0.35002834	0.56000911	0.54930206	1.24220031	0.89005473	-0.10049134	-0.16225845	0.14154209
3494	34.93000000	-0.57131241	-0.15432834	-0.28309406	-0.49234518	0.16144454	0.16919416	0.33843467	0.23043402	0.90275909	-0.46582630	0.20998029	2.09646607	-0.47859772	-0.09185033	0.74761642	0.27318374	-0.35907577	0.66156208	0.50610060	2.07387927	0.77143265	-0.09871924	-0.14135808	0.13333908
3495	34.94000000	-0.58924782	-0.17343672	-0.26438089	-0.45139868	0.05801397	0.24313502	0.46139003	0.23957752	1.30275825	-0.33940427	0.22113818	2.04130213	-0.43080940	-0.07780680	0.78431555	0.00003529	-0.38949161	0.73882898	0.43904860	2.85452465	0.53351667	-0.09494816	-0.12726624	0.12778426
3496	34.95000000	-0.60054716	-0.19318831	-0.23485224	-0.40084536	-0.04367377	0.31886477	0.23424931	0.16467103	1.56147413	-0.13923096	0.21416327	1.89060450	-0.42190383	-0.06816257	0.80162007	-0.32557470	-0.43322372	0.73359186	0.34257647	3.35599479	0.19547089	-0.08929608	-0.12519396	0.13128513
3497	34.96000000	-0.60845443	-0.21338750	-0.20068101	-0.35009412	-0.13029322	0.37733394	-0.18823421	0.08941905	1.80582032	0.09111629	0.19940890	1.70569004	-0.43139909	-0.05691051	0.80569131	-0.59025709	-0.46250810	0.66721420	0.23330518	3.66237930	-0.16441805	-0.08061661	-0.12430816	0.13959450
3498	34.97000000	-0.61701733	-0.23381287	-0.16825528	-0.30856487	-0.18775065	0.39969634	-0.59205713	0.11035639	2.17106305	0.30054821	0.18822150	1.55521416	-0.42529145	-0.03933564	0.80848745	-0.67188214	-0.44876856	0.57583299	0.13021883	3.90995159	-0.46005473	-0.06763796	-0.11173701	0.14666857
3499	34.98000000	-0.62348659	-0.25396932	-0.14105924	-0.28355779	-0.20929214	0.38875507	-0.90395106	0.21769500	2.64844468	0.46716000	0.18496755	1.46129696	-0.38351100	-0.01876145	0.81035191	-0.57358540	-0.40580728	0.49648523	0.02627253	4.15204557	-0.65205870	-0.05070971	-0.08848733	0.14905622
3500	34.99000000	-0.61988373	-0.27315029	-0.12034134	-0.28073732	-0.19381670	0.36397518	-1.15896839	0.31982208	3.11835959	0.59150553	0.18863939	1.41023542	-0.29672111	-0.00469609	0.80269055	-0.39492117	-0.38003591	0.46688804	-0.10560032	4.37814750	-0.73701041	-0.03142952	-0.06624731	0.14530296
3501	35	-0.60208187	-0.28965039	-0.10676849	-0.30047043	-0.14396849	0.34033225	-1.37197114	0.35330452	3.48747761	0.66460765	0.19681042	1.38718862	-0.16509572	-0.00232183	0.78123493	-0.22369174	-0.40080781	0.50797589	-0.27251506	4.57513322	-0.71191316	-0.01130544	-0.05366208	0.13500390
3502	35.01000000	-0.57779872	-0.29881236	-0.09945062	-0.32750813	-0.07308799	0.31818814	-1.48954755	0.34469709	3.74901650	0.64745180	0.20324855	1.37667272	-0.01624832	-0.00349424	0.75525327	-0.10540940	-0.44429643	0.59076278	-0.42077289	4.72700227	-0.57227800	0.00851600	-0.04951813	0.12072043
3503	35.02000000	-0.55644232	-0.29577039	-0.09720941	-0.34441798	0.00390575	0.29510372	-1.44791215	0.33562881	3.91347313	0.49923884	0.20095081	1.36338176	0.11746437	0.00175609	0.73569189	-0.07374218	-0.47833264	0.67787291	-0.48891064	4.81716059	-0.31517787	0.02692390	-0.05079939	0.10560354
3504	35.03000000	-0.53994597	-0.28070402	-0.09886130	-0.34429705	0.07806444	0.26715664	-1.21693216	0.34433917	4.01046221	0.23556262	0.18190748	1.33645035	0.20862192	0.01383795	0.72115868	-0.10212488	-0.49303609	0.74449474	-0.46752408	4.82808916	0.03481565	0.04233952	-0.05479114	0.09342059
3505	35.04000000	-0.52448943	-0.25767616	-0.10321834	-0.32834865	0.14503595	0.22928581	-0.79240517	0.37106268	4.08430670	-0.08457749	0.13733924	1.28843282	0.23361777	0.02580155	0.70076774	-0.11764621	-0.49568201	0.77549532	-0.38728193	4.74156570	0.43196499	0.05282452	-0.05901074	0.08841183
3506	35.05000000	-0.50672500	-0.23016678	-0.10871450	-0.29876519	0.20041000	0.18047781	-0.20331842	0.41598059	4.16809369	-0.40895125	0.06561319	1.21381523	0.18734975	0.03207714	0.66923978	-0.07478240	-0.49090428	0.76468576	-0.27700542	4.55097552	0.83333105	0.05707950	-0.06115995	0.09269812
3507	35.06000000	-0.48514905	-0.19962668	-0.11266053	-0.26005848	0.23925212	0.13183354	0.42470244	0.48049222	4.26039952	-0.70876010	-0.01360967	1.11256218	0.11940857	0.03175808	0.63868066	-0.01293207	-0.47417696	0.73171399	-0.15696325	4.28424886	1.20590805	0.05573114	-0.05947063	0.10206659
3508	35.07000000	-0.45870603	-0.16720726	-0.11225651	-0.21700881	0.25664743	0.09608504	0.95399401	0.56568370	4.35228256	-0.95960821	-0.07729170	0.98646001	0.08640250	0.02504483	0.62362244	0.01517907	-0.44008062	0.70026269	-0.04474074	3.97614524	1.52006877	0.04987383	-0.05250788	0.11129527
3509	35.08000000	-0.42794381	-0.13519252	-0.10615383	-0.17199670	0.24942418	0.07685694	1.33411466	0.66458567	4.41778124	-1.13815540	-0.11077804	0.84939715	0.09863922	0.01580246	0.62680532	-0.00765605	-0.39516609	0.68291124	0.05856863	3.66804519	1.76925963	0.04227195	-0.04235664	0.11758487
3510	35.09000000	-0.39464480	-0.10673799	-0.09412172	-0.12555554	0.21575497	0.07076301	1.58176158	0.76402874	4.41784602	-1.22187410	-0.10587239	0.72457395	0.13078846	0.01071566	0.64189280	-0.07129980	-0.35519629	0.68368596	0.16455970	3.40641250	1.96468106	0.03697441	-0.03381060	0.12000206
3511	35.10000000	-0.36087519	-0.08448378	-0.07677707	-0.07835184	0.15715155	0.07425312	1.70911342	0.85221900	4.33169542	-1.18818813	-0.06169870	0.62972206	0.16225117	0.01454375	0.66326703	-0.16170329	-0.33257331	0.69888116	0.27577004	3.21982498	2.10724910	0.03667115	-0.03070805	0.11900180
3512	35.11000000	-0.32945003	-0.06947178	-0.05717016	-0.03158895	0.08494483	0.08382596	1.70979062	0.92192350	4.19383037	-1.01431473	0.00136100	0.56561156	0.18921084	0.02610961	0.68813922	-0.25528575	-0.32900878	0.70246983	0.36685451	3.08332506	2.16596329	0.03991591	-0.03384133	0.11902156
3513	35.12000000	-0.30309028	-0.06219385	-0.03862865	0.01350976	0.01210692	0.09592513	1.57494118	0.96696200	4.04644468	-0.68313796	0.05969219	0.52925803	0.21157796	0.04281656	0.71422978	-0.32782538	-0.34383312	0.66678068	0.40964607	2.96455907	2.10604957	0.04460104	-0.04336241	0.12489744
3514	35.13000000	-0.28103730	-0.05933273	-0.02189910	0.05690632	-0.05099717	0.10603450	1.31005802	0.98428815	3.89390528	-0.26290548	0.10012146	0.50842132	0.23860210	0.05724989	0.73905162	-0.37187789	-0.37032137	0.60128949	0.41088947	2.86860714	1.92456339	0.05016508	-0.05826844	0.13641269
3515	35.14000000	-0.25985488	-0.05464007	-0.00574124	0.09947493	-0.09601164	0.10890073	0.93169179	0.97326550	3.71146851	0.11245186	0.11751442	0.48373502	0.28671181	0.05829054	0.75995949	-0.39291528	-0.39709041	0.54405901	0.40418716	2.82933441	1.64306453	0.05723642	-0.07666796	0.14946103
3516	35.15000000	-0.23738819	-0.04337480	0.01097432	0.14169768	-0.11767837	0.10135919	0.47652294	0.92984278	3.48505761	0.34699044	0.10886316	0.43411736	0.35888177	0.04075958	0.77645427	-0.39802277	-0.41698278	0.52197203	0.40066505	2.83933770	1.28626702	0.06594860	-0.09722236	0.15997232
3517	35.16000000	-0.21549469	-0.02549848	0.02889564	0.18282176	-0.11979021	0.08650791	0.04020100	0.83963764	3.23451680	0.46266324	0.07686393	0.33393419	0.41756072	0.01741192	0.79442589	-0.39809183	-0.43575318	0.52650594	0.34260892	2.76638830	0.88638443	0.07487379	-0.12030372	0.16428131
3518	35.17000000	-0.19657008	-0.00184763	0.04854310	0.22186028	-0.10815335	0.06874509	-0.27582817	0.68860049	2.98306388	0.50138165	0.02567229	0.16001448	0.42056666	0.00360457	0.82069580	-0.40348644	-0.46064461	0.54275736	0.16461195	2.46744918	0.47882470	0.08243801	-0.14663828	0.15942021
3519	35.18000000	-0.17996494	0.02665874	0.06985861	0.25773974	-0.09366140	0.05459770	-0.44652131	0.49624113	2.71055637	0.47754222	-0.03450078	-0.06136356	0.36853912	0.00401695	0.85834873	-0.40614887	-0.48544827	0.55829392	-0.12339559	1.98307957	0.12604603	0.08920039	-0.17751936	0.15173804
3520	35.19000000	-0.16268619	0.05903848	0.09233888	0.28932101	-0.09111935	0.05222846	-0.50566204	0.30789229	2.36348889	0.38436323	-0.08878696	-0.26586048	0.29508143	0.01510799	0.90759045	-0.38384721	-0.49360771	0.56258783	-0.45347850	1.49512326	-0.08870867	0.09736105	-0.21467591	0.15475226
